# xmcd
#
# Track frame offsets:
#	150
#	8017
#	23127
#	36474
#	64855
#	91630
#	108376
#	121736
#	136613
#	151633
#	181858
#	202896
#	231800
#
# Disc length: 3458 seconds
#
# Revision: 0
# Processed by: cddbd v1.5PL3 Copyright (c) Steve Scherf et al.
# Submitted via: dBpowerAMP V4.0
#
DISCID=8f0d800d
DTITLE=Muddy Waters Blues Band - Live At Ebbets Field May 30 1973  Denver Colorado
DYEAR=1900
DGENRE=Blues
TTITLE0=Piano jam
TTITLE1=Instrumental
TTITLE2=Instrumental with Muddy intro
TTITLE3=My Sweet Little Baby
TTITLE4=Rock Me
TTITLE5=Can't Get No Grindin' (What's The Matter With The Meal)
TTITLE6=I've Got My Mojo Working
TTITLE7=Forty Days And Forty Nights
TTITLE8=Band intros*
TTITLE9=I Know You Didn't Want Me*
TTITLE10=Thrill Is Gone*
TTITLE11=Instrumental*
TTITLE12=Caledonia
EXTD=
EXTT0=
EXTT1=
EXTT2=
EXTT3=
EXTT4=
EXTT5=
EXTT6=
EXTT7=
EXTT8=
EXTT9=
EXTT10=
EXTT11=
EXTT12=
PLAYORDER=
